<svg width="16" height="16" viewBox="0 0 16 16" fill="none" xmlns="http://www.w3.org/2000/svg">
<g id="user/plus">
<path id="Vector" d="M14.3843 6.98006H13.0403V5.62006C13.0403 5.43306 12.8891 5.28006 12.7043 5.28006H12.0323C11.8475 5.28006 11.6963 5.43306 11.6963 5.62006V6.98006H10.3523C10.1675 6.98006 10.0163 7.13306 10.0163 7.32006V8.00006C10.0163 8.18706 10.1675 8.34006 10.3523 8.34006H11.6963V9.70006C11.6963 9.88706 11.8475 10.0401 12.0323 10.0401H12.7043C12.8891 10.0401 13.0403 9.88706 13.0403 9.70006V8.34006H14.3843C14.5691 8.34006 14.7203 8.18706 14.7203 8.00006V7.32006C14.7203 7.13306 14.5691 6.98006 14.3843 6.98006ZM5.98427 8.00006C7.46897 8.00006 8.67227 6.78243 8.67227 5.28006C8.67227 3.77768 7.46897 2.56006 5.98427 2.56006C4.49957 2.56006 3.29627 3.77768 3.29627 5.28006C3.29627 6.78243 4.49957 8.00006 5.98427 8.00006ZM7.86587 8.68006H7.51517C7.04897 8.89681 6.53027 9.02006 5.98427 9.02006C5.43827 9.02006 4.92167 8.89681 4.45337 8.68006H4.10267C2.54447 8.68006 1.28027 9.95931 1.28027 11.5361V12.4201C1.28027 12.9832 1.73177 13.4401 2.28827 13.4401H9.68027C10.2368 13.4401 10.6883 12.9832 10.6883 12.4201V11.5361C10.6883 9.95931 9.42407 8.68006 7.86587 8.68006Z" fill="white" fill-opacity="0.7"/>
</g>
</svg>
