<svg width="25" height="24" viewBox="0 0 25 24" fill="none" xmlns="http://www.w3.org/2000/svg">
<path fill-rule="evenodd" clip-rule="evenodd" d="M19.623 12.936C19.659 12.636 19.683 12.324 19.683 12C19.683 11.676 19.659 11.364 19.611 11.064L21.639 9.48002C21.819 9.33602 21.867 9.07202 21.759 8.86802L19.839 5.54402C19.719 5.32802 19.467 5.25602 19.251 5.32802L16.863 6.28802C16.359 5.90402 15.831 5.59202 15.243 5.35202L14.883 2.80802C14.847 2.56802 14.643 2.40002 14.403 2.40002H10.563C10.323 2.40002 10.131 2.56802 10.095 2.80802L9.73502 5.35202C9.14702 5.59202 8.60702 5.91602 8.11502 6.28802L5.72702 5.32802C5.51102 5.24402 5.25902 5.32802 5.13902 5.54402L3.21902 8.86802C3.09902 9.08402 3.14702 9.33602 3.33902 9.48002L5.36702 11.064C5.31902 11.364 5.28302 11.688 5.28302 12C5.28302 12.312 5.30702 12.636 5.35502 12.936L3.32702 14.52C3.14702 14.664 3.09902 14.928 3.20702 15.132L5.12702 18.456C5.24702 18.672 5.49902 18.744 5.71502 18.672L8.10302 17.712C8.60702 18.096 9.13502 18.408 9.72302 18.648L10.083 21.192C10.131 21.432 10.323 21.6 10.563 21.6H14.403C14.643 21.6 14.847 21.432 14.871 21.192L15.231 18.648C15.819 18.408 16.359 18.084 16.851 17.712L19.239 18.672C19.455 18.756 19.707 18.672 19.827 18.456L21.747 15.132C21.867 14.916 21.819 14.664 21.627 14.52L19.623 12.936ZM12.4828 15.6C10.5028 15.6 8.88281 13.98 8.88281 12C8.88281 10.02 10.5028 8.40002 12.4828 8.40002C14.4628 8.40002 16.0828 10.02 16.0828 12C16.0828 13.98 14.4628 15.6 12.4828 15.6Z" fill="white" fill-opacity="0.3"/>
</svg>
