<svg width="7" height="12" viewBox="0 0 7 12" fill="none" xmlns="http://www.w3.org/2000/svg">
<path d="M5.53696 7.53015L4.01029 9.06349L4.01029 1.33682C4.01029 1.16001 3.94005 0.990439 3.81503 0.865416C3.69001 0.740392 3.52044 0.670154 3.34363 0.670154C3.16682 0.670154 2.99725 0.740392 2.87222 0.865416C2.7472 0.990439 2.67696 1.16001 2.67696 1.33682L2.67696 9.06349L1.15029 7.53015C1.08832 7.46767 1.01458 7.41807 0.933344 7.38423C0.852105 7.35038 0.764968 7.33295 0.67696 7.33295C0.588952 7.33295 0.501815 7.35038 0.420575 7.38423C0.339335 7.41807 0.265603 7.46767 0.203627 7.53015C0.141141 7.59213 0.0915442 7.66586 0.0576982 7.7471C0.0238523 7.82834 0.00642776 7.91548 0.00642776 8.00349C0.00642776 8.09149 0.0238523 8.17863 0.0576982 8.25987C0.0915442 8.34111 0.141141 8.41484 0.203627 8.47682L2.87029 11.1435C2.9337 11.2042 3.00846 11.2518 3.09029 11.2835C3.2526 11.3502 3.43465 11.3502 3.59696 11.2835C3.67879 11.2518 3.75356 11.2042 3.81696 11.1435L6.48363 8.47682C6.54579 8.41466 6.59509 8.34087 6.62873 8.25965C6.66237 8.17844 6.67969 8.09139 6.67969 8.00349C6.67969 7.91558 6.66237 7.82854 6.62873 7.74732C6.59509 7.66611 6.54579 7.59231 6.48363 7.53015C6.42147 7.46799 6.34767 7.41869 6.26646 7.38505C6.18524 7.35141 6.0982 7.33409 6.01029 7.33409C5.92239 7.33409 5.83534 7.35141 5.75413 7.38505C5.67291 7.41869 5.59912 7.46799 5.53696 7.53015Z" fill="#707070"/>
</svg>
